<svg width="180" height="44" viewBox="0 0 180 44" fill="none" xmlns="http://www.w3.org/2000/svg">
<path d="M25.5609 7.42714C22.4222 7.42714 19.2805 7.33332 16.1468 7.4491C11.5511 7.61978 7.67385 11.4816 7.39541 15.9921C7.09501 20.854 10.2587 25.0732 14.8744 25.9845C15.6129 26.1302 16.3574 26.1731 17.1029 26.1681C17.4871 26.1661 17.7267 26.2579 17.9472 26.6073C18.7965 27.9498 20.058 28.6185 21.6358 28.6375C23.7276 28.6625 25.8204 28.6515 27.9132 28.6415C28.7256 28.6375 29.2116 28.1943 29.2016 27.5136C29.1916 26.8379 28.7066 26.4286 27.8783 26.4246C26.1597 26.4176 24.4402 26.4196 22.7216 26.4246C22.3234 26.4256 21.8973 26.4047 21.9063 25.9016C21.9152 25.4115 22.3374 25.3796 22.7366 25.3806C24.4551 25.3866 26.1747 25.3866 27.8932 25.3806C28.7226 25.3776 29.2186 24.9544 29.1996 24.2906C29.1806 23.6498 28.7116 23.2586 27.9132 23.2536C26.2944 23.2446 24.6747 23.2506 23.0559 23.2506C22.8813 23.2506 22.7066 23.2576 22.533 23.2476C22.1717 23.2266 21.8723 23.0869 21.9053 22.6756C21.9342 22.3143 22.2166 22.2155 22.556 22.2165C24.2246 22.2225 25.8942 22.2195 27.5629 22.2175C27.7864 22.2175 28.017 22.2405 28.2335 22.1985C28.8483 22.0788 29.2186 21.7025 29.1916 21.0617C29.1647 20.4258 28.7834 20.0176 28.1507 20.0116C25.8094 19.9897 23.4661 19.9487 21.1278 20.0376C19.8244 20.0875 18.7446 20.7782 18.039 21.8871C17.7207 22.3872 17.4303 22.509 16.8504 22.4351C14.3405 22.1157 12.4483 20.1643 12.3165 17.674C12.1848 15.1737 13.8345 12.9728 16.2826 12.4318C16.7636 12.326 17.2716 12.313 17.7676 12.312C22.0021 12.303 26.2366 12.298 30.472 12.31C33.2874 12.318 35.1886 13.7024 35.8443 16.2207C35.962 16.6719 35.997 17.155 35.997 17.6231C35.994 20.2112 36.0249 22.8004 35.9391 25.3866C35.7714 30.4122 31.3633 35.1753 26.3693 35.842C25.5509 35.9508 24.7356 35.9937 23.9142 35.9937C19.8294 35.9937 15.7436 36.0107 11.6588 35.9888C6.06907 35.9588 1.64496 32.4544 0.29168 27.0245C0.0801048 26.1751 0.0112431 25.3087 0.0112431 24.4383C0.0142371 19.9088 -0.0376586 15.3783 0.0591469 10.8507C0.173916 5.50374 4.68885 0.705705 10.0112 0.134772C10.8016 0.0499304 11.601 0.00900692 12.3964 0.00800878C17.6269 -0.0029707 22.8583 -0.000974427 28.0898 0.00401625C29.6547 0.00601251 31.1597 0.273513 32.501 1.14189C34.5479 2.46741 35.7145 4.32893 35.955 6.77137C36.0069 7.29439 35.8283 7.3952 35.3512 7.39321C32.0878 7.37624 28.8244 7.38422 25.5619 7.38422C25.5619 7.3982 25.5619 7.41317 25.5619 7.42714H25.5609Z" fill="#E7E6E6"/>
<path d="M70.4606 22.0685C66.6842 22.0685 63.0668 22.0536 59.4494 22.0824C58.8315 22.0874 58.5826 21.9941 58.6166 21.2985C58.6836 19.9409 58.6476 18.5775 58.6286 17.2169C58.6236 16.8448 58.7095 16.7049 59.1195 16.7059C64.9085 16.7188 70.6986 16.7168 76.4876 16.7099C76.8106 16.7099 76.9615 16.7466 76.9785 17.1376C77.1435 20.9512 76.3766 24.5117 74.023 27.6098C71.2955 31.2001 67.6491 33.2642 63.1458 33.814C59.6464 34.2407 56.211 33.9926 53.0025 32.4465C47.9043 29.9895 44.9108 25.9496 44.1729 20.3518C43.749 17.1326 44.073 13.9809 45.4957 11.0197C47.6284 6.58394 51.1218 3.72003 55.943 2.58875C60.9162 1.42175 65.6994 1.91892 70.0767 4.71734C72.9522 6.55517 74.9379 9.11542 76.0987 12.4189C73.896 12.4189 71.7624 12.414 69.6287 12.4249C69.3678 12.4259 69.2948 12.2602 69.1898 12.0994C67.1841 9.04 64.2646 7.68545 60.6632 7.64377C55.3091 7.58225 51.4437 10.5504 50.4039 15.7006C49.4951 20.2009 51.0018 24.7975 55.2471 27.193C59.3094 29.4863 66.7522 28.9465 69.6277 23.7595C69.9117 23.2474 70.1457 22.7086 70.4586 22.0675L70.4606 22.0685Z" fill="#E7E6E6"/>
<path d="M174.38 30.0724C174.256 30.1204 174.193 30.1244 174.173 30.1554C171.897 33.6732 168.55 34.2238 164.834 33.3943C160.487 32.4239 157.576 28.8852 157.162 24.424C156.886 21.4618 157.069 18.4977 157.018 15.5345C156.989 13.9146 157.031 12.2946 157.001 10.6746C156.991 10.1779 157.081 9.98403 157.631 10.001C159.069 10.044 160.508 10.04 161.945 10.002C162.469 9.98803 162.599 10.1379 162.596 10.6596C162.572 14.2484 162.579 17.8381 162.586 21.4268C162.588 22.5981 162.648 23.7694 163.041 24.8877C163.763 26.9394 165.254 28.0857 167.356 28.3885C168.457 28.5474 169.579 28.5264 170.657 28.1296C172.906 27.3022 174.025 25.5872 174.273 23.2907C174.573 20.5104 174.355 17.7132 174.398 14.9229C174.421 13.4529 174.415 11.9818 174.394 10.5117C174.388 10.1249 174.491 10 174.888 10.006C176.424 10.028 177.963 10.031 179.5 10.006C179.924 9.99902 179.973 10.1719 179.972 10.5307C179.956 18.3068 180.085 26.0869 179.896 33.858C179.758 39.5335 176.46 42.9423 170.743 43.8098C167.849 44.2485 165.022 43.9537 162.339 42.6595C159.686 41.3793 158.101 39.2497 157.315 36.4494C157.201 36.0457 157.278 35.9367 157.701 35.9427C159.238 35.9647 160.776 35.9577 162.313 35.9457C162.612 35.9437 162.823 36.0017 162.972 36.2935C164.159 38.6131 166.26 39.1477 168.6 39.1147C169.944 39.0958 171.248 38.8439 172.363 37.9745C173.562 37.039 174.07 35.7359 174.262 34.3038C174.447 32.9266 174.446 31.5315 174.378 30.0714L174.38 30.0724Z" fill="#E7E6E6"/>
<path d="M134.618 13.2549C136.224 11.2319 138.245 10.1087 140.727 9.68756C146.757 8.66562 152.729 12.8547 153.731 18.8801C154.254 22.0264 154.108 25.12 152.458 27.9445C149.98 32.1862 146.142 34.0275 141.305 33.9997C137.109 33.9759 133.618 32.509 131.132 29.024C129.741 27.0735 129.068 24.8439 129.045 22.4862C128.98 15.8252 129.016 9.16318 129 2.50218C129 2.11684 129.1 1.99965 129.493 2.00561C131.007 2.02845 132.522 2.04037 134.034 2.00064C134.569 1.98674 134.628 2.19927 134.626 2.6442C134.611 5.91263 134.618 9.18205 134.618 12.4505C134.618 12.7186 134.618 12.9868 134.618 13.2549ZM134.623 21.8109C134.643 26.6028 138.339 29.5961 143.053 28.6367C146.015 28.0339 147.903 25.9493 148.278 22.6143C148.802 17.9495 145.508 14.0832 140.198 14.8767C136.682 15.4021 134.608 18.0895 134.623 21.8109Z" fill="#E7E6E6"/>
<path d="M125.99 17.6748C125.923 19.7909 126.12 22.3349 125.787 24.8689C125.148 29.717 121.656 33.2296 116.85 33.8304C113.954 34.1922 111.124 34.0513 108.478 32.6538C105.193 30.9195 103.544 28.0487 103.217 24.4421C102.798 19.7949 103.131 15.1258 103.04 10.4676C103.033 10.1078 103.139 10.0038 103.496 10.0078C105.055 10.0258 106.615 10.0388 108.173 10.0038C108.754 9.99082 108.653 10.3417 108.653 10.6795C108.653 14.3941 108.653 18.1086 108.653 21.8231C108.653 22.9957 108.703 24.1592 109.123 25.2758C109.916 27.3799 111.479 28.4665 113.646 28.7074C114.578 28.8114 115.523 28.7834 116.443 28.5245C118.553 27.9297 119.973 26.1974 120.276 23.8833C120.376 23.1146 120.416 22.3469 120.415 21.5732C120.409 17.9337 120.423 14.2931 120.399 10.6536C120.395 10.1268 120.528 9.98782 121.049 10.0008C122.508 10.0388 123.97 10.0348 125.429 10.0028C125.902 9.99282 126.004 10.1478 126 10.5956C125.978 12.8137 125.99 15.0328 125.99 17.6748Z" fill="#E7E6E6"/>
<path d="M79.0312 25.2924C79.0312 23.025 78.9567 20.7536 79.0486 18.4902C79.1804 15.264 80.2438 12.4467 83.1775 10.5962C84.5719 9.71638 86.1184 9.2365 87.7559 9.09054C91.0891 8.79461 94.271 9.13753 96.9198 11.4289C98.732 12.9975 99.5246 15.055 99.8362 17.3325C99.9169 17.9233 99.9189 18.5242 99.9904 19.117C100.043 19.5469 99.8842 19.6619 99.4521 19.6549C97.9229 19.6309 96.3927 19.6219 94.8645 19.6589C94.3793 19.6709 94.2619 19.5069 94.2435 19.079C94.1934 17.9293 94.0484 16.7946 93.2945 15.8398C93.1249 15.6249 92.9523 15.3989 92.7347 15.238C91.0513 13.9873 89.1727 13.9653 87.3085 14.6471C85.5474 15.291 84.9223 16.8026 84.8456 18.5162C84.6413 23.073 84.7874 27.6348 84.7762 32.1937C84.7752 32.8685 84.5903 33.0225 83.9324 32.9975C82.5585 32.9455 81.1795 32.9495 79.8045 32.9965C79.1916 33.0175 78.9873 32.8925 79.0006 32.2427C79.0476 29.9263 79.019 27.6079 79.019 25.2904C79.0231 25.2904 79.0272 25.2904 79.0312 25.2904V25.2924Z" fill="#E7E6E6"/>
</svg>
